# Blender v3.6.9 OBJ File: ''
# www.blender.org
o trigger_Mesh.074
v 0.004248 0.023866 -0.047924
v 0.004248 0.034568 -0.047672
v -0.004248 0.023866 -0.047924
v -0.004248 0.034568 -0.047672
v 0.004248 0.024371 -0.057869
v 0.004248 0.034568 -0.057869
v -0.004248 0.024371 -0.057869
v -0.004248 0.034568 -0.057869
v 0.004248 0.011093 -0.052041
v -0.004248 0.011093 -0.052041
v 0.004248 0.012942 -0.060306
v -0.004248 0.012942 -0.060306
v 0.004248 0.001514 -0.063722
v -0.004248 0.001514 -0.063722
v 0.004248 0.003446 -0.068541
v -0.004248 0.003446 -0.068541
vt 0.149015 0.037002
vt 0.149007 0.037334
vt 0.149015 0.037002
vt 0.149007 0.037334
vt 0.149324 0.037018
vt 0.149324 0.037334
vt 0.149324 0.037018
vt 0.149324 0.037334
vt 0.149143 0.036605
vt 0.149400 0.036663
vt 0.149400 0.036663
vt 0.149655 0.036368
vt 0.149655 0.036368
vt 0.149143 0.036605
vt 0.149506 0.036308
vt 0.149506 0.036308
vn -0.0000 -0.0236 0.9997
vn -1.0000 0.0000 0.0000
vn 0.0000 0.0000 -1.0000
vn 1.0000 -0.0000 0.0000
vn 0.0000 1.0000 0.0000
vn 0.0000 0.6552 -0.7555
vn 0.0000 -0.3068 0.9518
vn 0.0000 0.2085 -0.9780
vn 0.0000 -0.9281 -0.3722
vn 0.0000 -0.7732 0.6341
s 1
f 1/1/1 2/2/1 3/3/1
f 3/3/1 2/2/1 4/4/1
f 3/3/2 4/4/2 7/5/2
f 7/5/2 4/4/2 8/6/2
f 7/5/3 8/6/3 5/7/3
f 5/7/3 8/6/3 6/8/3
f 6/8/4 2/2/4 5/7/4
f 5/7/4 2/2/4 1/1/4
f 1/1/4 9/9/4 5/7/4
f 5/7/4 9/9/4 11/10/4
f 8/6/5 4/4/5 6/8/5
f 6/8/5 4/4/5 2/2/5
f 12/11/6 11/10/6 16/12/6
f 16/12/6 11/10/6 15/13/6
f 3/3/2 7/5/2 10/14/2
f 10/14/2 7/5/2 12/11/2
f 1/1/7 3/3/7 9/9/7
f 9/9/7 3/3/7 10/14/7
f 7/5/8 5/7/8 12/11/8
f 12/11/8 5/7/8 11/10/8
f 14/15/9 16/12/9 13/16/9
f 13/16/9 16/12/9 15/13/9
f 9/9/10 10/14/10 13/16/10
f 13/16/10 10/14/10 14/15/10
f 9/9/4 13/16/4 11/10/4
f 11/10/4 13/16/4 15/13/4
f 10/14/2 12/11/2 14/15/2
f 14/15/2 12/11/2 16/12/2
